<svg id="visual" viewBox="0 0 1920 969" width="1920" height="969" xmlns="http://www.w3.org/2000/svg" xmlns:xlink="http://www.w3.org/1999/xlink" version="1.1"><rect x="0" y="0" width="1920" height="969" fill="#e8a237"></rect><defs><linearGradient id="grad1_0" x1="49.5%" y1="100%" x2="100%" y2="0%"><stop offset="10.371517027863776%" stop-color="#e8a237" stop-opacity="1"></stop><stop offset="89.62848297213623%" stop-color="#e8a237" stop-opacity="1"></stop></linearGradient></defs><defs><linearGradient id="grad2_0" x1="0%" y1="100%" x2="50.5%" y2="0%"><stop offset="10.371517027863776%" stop-color="#e8a237" stop-opacity="1"></stop><stop offset="89.62848297213623%" stop-color="#e8a237" stop-opacity="1"></stop></linearGradient></defs><g transform="translate(1920, 969)"><path d="M-581.4 0C-576.9 -63.4 -572.3 -126.9 -543.1 -176.4C-513.8 -226 -459.8 -261.7 -423.1 -307.4C-386.4 -353.1 -367 -408.8 -329.7 -453.9C-292.5 -498.9 -237.6 -533.5 -179.7 -552.9C-121.7 -572.4 -60.9 -576.9 0 -581.4L0 0Z" fill="#F0C27C"></path></g><g transform="translate(0, 0)"><path d="M581.4 0C552.3 53.5 523.2 106.9 506.9 164.7C490.7 222.5 487.3 284.7 460.3 334.4C433.4 384.2 382.9 421.6 333.3 458.7C283.7 495.8 235.1 532.6 179.7 552.9C124.3 573.3 62.1 577.4 0 581.4L0 0Z" fill="#F0C27C"></path></g></svg>