<svg xmlns="http://www.w3.org/2000/svg" version="1.1" xmlns:xlink="http://www.w3.org/1999/xlink" xmlns:svgjs="http://svgjs.com/svgjs" width="1440" height="560" preserveAspectRatio="none" viewBox="0 0 1440 560"><g mask="url(&quot;#SvgjsMask1003&quot;)" fill="none"><rect width="1440" height="560" x="0" y="0" fill="rgba(255, 179, 46, 1)"></rect><path d="M0,496.961C97.895,518.254,203.265,501.126,291.176,453.079C382.296,403.278,464.728,325.443,495.36,226.223C524.909,130.51,484.833,29.457,451.077,-64.855C422.544,-144.576,372.885,-211.087,316.298,-274.074C260.652,-336.013,203.81,-399.099,125.465,-427.295C44.504,-456.432,-42.139,-445.631,-127.358,-433.741C-225.548,-420.041,-335.178,-420.945,-407.334,-352.957C-481.089,-283.462,-498.968,-174.058,-509.886,-73.31C-520.528,24.889,-525.355,133.117,-468.784,214.086C-414.237,292.158,-301.299,292.739,-219.755,341.945C-141.416,389.216,-89.405,477.514,0,496.961" fill="#f19900"></path><path d="M1440 958.6700000000001C1513.284 961.317 1571.187 896.0989999999999 1622.047 843.271 1665.067 798.587 1680.5819999999999 738.059 1706.6019999999999 681.753 1732.76 625.148 1774.6680000000001 574.157 1775.223 511.802 1775.819 444.861 1754.761 375.815 1709.767 326.246 1665.16 277.103 1597.67 257.739 1532.627 244.541 1471.64 232.166 1411.767 246.30399999999997 1349.924 253.23000000000002 1273.946 261.739 1181.229 234.75 1128.212 289.834 1075.575 344.524 1097.019 435.56100000000004 1101.51 511.33299999999997 1105.277 574.887 1122.818 634.942 1152.02 691.516 1180.0810000000001 745.8779999999999 1221.364 788.81 1266.214 830.4159999999999 1320.087 880.392 1366.564 956.017 1440 958.6700000000001" fill="#ffc96a"></path></g><defs><mask id="SvgjsMask1003"><rect width="1440" height="560" fill="#ffffff"></rect></mask></defs></svg>