<svg xmlns="http://www.w3.org/2000/svg" version="1.1" xmlns:xlink="http://www.w3.org/1999/xlink" xmlns:svgjs="http://svgjs.dev/svgjs" viewBox="0 0 800 800"><defs><filter id="ssspot-filter" x="-20%" y="-20%" width="140%" height="140%" filterUnits="objectBoundingBox" primitiveUnits="userSpaceOnUse" color-interpolation-filters="sRGB">
	<feTurbulence type="turbulence" baseFrequency="0.022 0.218" numOctaves="2" seed="232" stitchTiles="stitch" x="0%" y="0%" width="100%" height="100%" result="turbulence"></feTurbulence>
	<feGaussianBlur stdDeviation="0 3" x="0%" y="0%" width="100%" height="100%" in="turbulence" edgeMode="duplicate" result="blur"></feGaussianBlur>
	<feDisplacementMap in="SourceGraphic" in2="blur" scale="32" xChannelSelector="R" yChannelSelector="B" x="0%" y="0%" width="100%" height="100%" result="displacementMap"></feDisplacementMap>
</filter></defs><rect width="100%" height="100%" fill="hsl(32, 100%, 89%)"></rect><g fill="hsl(32, 100%, 51%)" filter="url(#ssspot-filter)"><circle r="5.758588076224498" cx="363.72280885698655" cy="87.0645194655949" opacity="0.7112268136686124"></circle><circle r="6.332938900948568" cx="258.38127053924273" cy="785.6507288097444" opacity="0.24952594119533583"></circle><circle r="4.299360650157299" cx="234.40988200159683" cy="190.67231424875632" opacity="0.6515981361132339"></circle><circle r="5.0544218346230645" cx="409.956386102286" cy="268.25293363434866" opacity="0.5333553605449269"></circle><circle r="4.907527782754286" cx="732.3736740179755" cy="785.3503708072415" opacity="0.48818776807352904"></circle><circle r="4.571341125692556" cx="480.51938069511027" cy="343.56201851477323" opacity="0.11125643404388301"></circle><circle r="5.479985248859517" cx="368.715686614002" cy="354.837886310473" opacity="0.6464879685911219"></circle><circle r="3.080954035978218" cx="464.6599744839967" cy="329.0725341116887" opacity="0.654857789995331"></circle><circle r="4.453793199655949" cx="405.5482988718442" cy="295.66741751891675" opacity="0.33242017790016065"></circle><circle r="5.523607568122257" cx="214.7238035597567" cy="405.1264357188469" opacity="0.529926620472797"></circle><circle r="7.677927525405293" cx="649.1105368576489" cy="442.67490013035774" opacity="0.7208620229850892"></circle><circle r="6.992548599881672" cx="70.10072733228122" cy="681.3693737963911" opacity="0.49799612130174065"></circle><circle r="5.5436881539372465" cx="292.87791868427706" cy="633.3718059368274" opacity="0.860836512827154"></circle><circle r="8.616694546927594" cx="429.06403163880395" cy="466.58923727708424" opacity="0.7232241300495138"></circle><circle r="5.866683988922287" cx="363.66949288699993" cy="321.7564594411256" opacity="0.3208665315148591"></circle><circle r="5.196175861773886" cx="401.2349484754174" cy="372.84920677676405" opacity="0.7831577884743913"></circle><circle r="6.21380758905185" cx="90.29387209651033" cy="784.060797463724" opacity="0.3372413557634749"></circle><circle r="5.046353297746851" cx="660.1136007256528" cy="669.5659812869868" opacity="0.9671013298164347"></circle><circle r="6.607422677957254" cx="610.4026311217808" cy="620.9332798519432" opacity="0.5282965364323474"></circle><circle r="5.3070252374525015" cx="50.054200876520895" cy="367.2198672977516" opacity="0.4731500178828797"></circle><circle r="5.013168450388324" cx="416.62098599553883" cy="686.3816330382288" opacity="0.8533657652079795"></circle><circle r="5.195877755812427" cx="144.45693626824044" cy="285.24947107500384" opacity="0.9477120850923244"></circle><circle r="6.3645295790874465" cx="585.8561966455918" cy="443.1144124995111" opacity="0.8390264151002357"></circle><circle r="6.203496858225838" cx="309.83823584904377" cy="785.0074422032848" opacity="0.8180033748565825"></circle><circle r="4.473001667317906" cx="636.9475111801568" cy="624.9652099682294" opacity="0.5542883606884287"></circle><circle r="5.491509216265385" cx="480.89001641489295" cy="422.5984385087113" opacity="0.18052463330097207"></circle><circle r="6.777977151596193" cx="412.63879587142054" cy="115.38601928879845" opacity="0.7004661871941472"></circle><circle r="7.348791339858674" cx="16.578309516256066" cy="486.7916104677852" opacity="0.10308734254004029"></circle><circle r="6.058665109493491" cx="725.2014474844632" cy="233.42642114154563" opacity="0.3200471360266651"></circle><circle r="6.544620868314764" cx="576.9210418548704" cy="13.109846963527547" opacity="0.7620022308489235"></circle><circle r="5.7851406746340235" cx="546.6922793307476" cy="138.1674345971255" opacity="0.21113898756922056"></circle><circle r="3.8240630772711985" cx="349.0740668028317" cy="275.53721112165596" opacity="0.15341952387141983"></circle><circle r="5.466973353509548" cx="396.1920946919984" cy="776.7519674663716" opacity="0.660144444877761"></circle><circle r="4.808359538266201" cx="590.5152884148142" cy="489.7381342960093" opacity="0.1594747223144075"></circle><circle r="9.92566092778199" cx="71.05991583141272" cy="248.4712608098873" opacity="0.6144378938163121"></circle><circle r="3.9498714738258656" cx="312.40874188451124" cy="460.6678741405874" opacity="0.9802581499885383"></circle><circle r="3.7439416488551625" cx="636.7774657131473" cy="57.94314303578615" opacity="0.10804422130334083"></circle><circle r="5.451487140686293" cx="328.11820005871436" cy="513.2588171706699" opacity="0.6161178011161937"></circle><circle r="3.174212062555809" cx="299.3124637987276" cy="607.1181073517694" opacity="0.14598427449730889"></circle><circle r="5.820543240124158" cx="461.260618987285" cy="586.6461645943548" opacity="0.5347595693480831"></circle><circle r="7.894736493794268" cx="734.9030190861625" cy="440.1951218859046" opacity="0.22832081922944028"></circle><circle r="5.983167183359951" cx="589.6903435619325" cy="238.63833575512402" opacity="0.7615633741195652"></circle><circle r="4.475745302880811" cx="100.64738990590355" cy="540.0187297170556" opacity="0.3162420424947966"></circle><circle r="4.155568906264668" cx="440.93717803149985" cy="426.0766023455172" opacity="0.9974506467928004"></circle><circle r="4.0455117779739505" cx="366.462950265185" cy="161.13049584202048" opacity="0.5662846839282383"></circle><circle r="3.797318998102923" cx="103.13728716706542" cy="128.91610865428746" opacity="0.8068241452569536"></circle><circle r="4.26452664602086" cx="76.84004792492497" cy="568.7455296752522" opacity="0.31933840929908974"></circle><circle r="5.046289837573975" cx="338.52849576272945" cy="344.4303029202498" opacity="0.7459353121961423"></circle><circle r="6.746679409039601" cx="40.6949235368063" cy="592.1482870071598" opacity="0.8249403431419965"></circle><circle r="4.428144351881433" cx="561.2441686051494" cy="604.968255211701" opacity="0.34627589558372185"></circle><circle r="5.151790272927192" cx="437.7857399368167" cy="622.9609272852073" opacity="0.9881012669895094"></circle><circle r="6.752240431372718" cx="742.6020675198715" cy="305.72072838140684" opacity="0.9587871226974894"></circle><circle r="3.8146686772020715" cx="149.02737596120116" cy="110.313849918305" opacity="0.16934655760900266"></circle><circle r="6.006450799837522" cx="596.2504135071468" cy="543.5706416451264" opacity="0.9111160351251506"></circle><circle r="6.141329216628266" cx="502.8066233481053" cy="625.6958100786479" opacity="0.8271530189443657"></circle><circle r="4.033648131040956" cx="502.41913096159664" cy="769.7706159128438" opacity="0.8664902170558637"></circle><circle r="6.300249601048101" cx="369.76053053130335" cy="199.58596044118997" opacity="0.3504399652679344"></circle><circle r="7.0638121922936215" cx="465.9877412313232" cy="485.4816262278648" opacity="0.6746268590370947"></circle><circle r="7.169952353010679" cx="58.017207428890444" cy="544.542676890257" opacity="0.34305790080405035"></circle><circle r="3.41648338579851" cx="288.1244581587709" cy="306.2437014012871" opacity="0.6364096959117111"></circle><circle r="3.7329861078114845" cx="586.9313248659646" cy="53.91442723764703" opacity="0.3682038750234764"></circle><circle r="7.70028565551724" cx="593.1251354243363" cy="134.08909139875567" opacity="0.19664268481033675"></circle><circle r="8.380259616245716" cx="709.3442092407071" cy="587.3806821818301" opacity="0.12973576397837452"></circle><circle r="5.705907057169714" cx="475.43610420420373" cy="280.66869677752584" opacity="0.6806623948635687"></circle><circle r="4.991375774024311" cx="781.8174771523392" cy="687.5237001601071" opacity="0.5483403053589452"></circle><circle r="5.28663505715895" cx="275.3792910036258" cy="386.94899723792906" opacity="0.6282770836726151"></circle><circle r="6.38757699586894" cx="713.670601948999" cy="719.342929184291" opacity="0.23257152770636175"></circle><circle r="3.366151670353233" cx="249.6732906325492" cy="345.9243038187795" opacity="0.2963753740997366"></circle><circle r="4.000204531792141" cx="189.16103292198864" cy="347.2154962417072" opacity="0.6913378280791502"></circle><circle r="4.921508801623331" cx="445.8558632647234" cy="683.2728922005904" opacity="0.7754871714014695"></circle><circle r="6.324864016605838" cx="506.6773763320558" cy="231.0031220519113" opacity="0.10218057591218145"></circle><circle r="5.287318397217479" cx="340.7015931627156" cy="773.5391304776822" opacity="0.2922751234976781"></circle><circle r="4.777258984102214" cx="111.93360715769863" cy="235.0994800620418" opacity="0.9936913337332092"></circle><circle r="5.519761265748678" cx="386.7967930723263" cy="116.6113894546408" opacity="0.7524131027297422"></circle><circle r="6.600957112991338" cx="448.04206986989476" cy="653.6870631946583" opacity="0.3059614751991751"></circle><circle r="6.8361286176908305" cx="198.12319652513756" cy="648.7463103939577" opacity="0.6674458508311716"></circle><circle r="5.0660676806231635" cx="46.33832999776572" cy="494.6011768338287" opacity="0.9146083337805919"></circle><circle r="7.395503624310772" cx="537.6246362732901" cy="779.170216552148" opacity="0.3240129266283618"></circle><circle r="3.002908964932467" cx="611.6551339655197" cy="218.2179733104057" opacity="0.8806217794873675"></circle><circle r="6.2991295845875825" cx="521.2317615331897" cy="509.67563734155334" opacity="0.9572389691530657"></circle><circle r="4.892568129341781" cx="761.2805518416334" cy="326.0545773155327" opacity="0.8994248534723506"></circle><circle r="5.564930073834002" cx="614.9892685959861" cy="161.52294461314017" opacity="0.32169664732676206"></circle><circle r="5.563341815845446" cx="70.01221210557938" cy="611.3001034538531" opacity="0.2659167679882687"></circle><circle r="8.073857975101708" cx="691.5165806820968" cy="369.6286562789615" opacity="0.9304218621808101"></circle><circle r="5.078749475603082" cx="111.85640834614038" cy="274.92475891945367" opacity="0.9972048746290723"></circle><circle r="5.999812968362016" cx="386.71680184481085" cy="692.2513032686218" opacity="0.6562466923879171"></circle><circle r="4.093228047986951" cx="502.55585703437316" cy="353.5758150904354" opacity="0.1070750449101678"></circle><circle r="4.598561269051212" cx="91.63337077424231" cy="734.1202749248565" opacity="0.978359375680555"></circle><circle r="2.9568440136037983" cx="186.14290987947356" cy="325.4543068971989" opacity="0.4423891237163312"></circle><circle r="6.500870948431581" cx="334.20565918221024" cy="396.6756474447618" opacity="0.9396611767681954"></circle><circle r="4.307004692038981" cx="589.6222078382164" cy="184.93582979462767" opacity="0.6372998004730573"></circle><circle r="5.878740766901599" cx="588.756392062777" cy="386.99598259851905" opacity="0.6872442921805059"></circle><circle r="4.776456272357784" cx="499.98130776815304" cy="299.17870093792357" opacity="0.9980955354239005"></circle><circle r="5.481852380935054" cx="141.63815786544075" cy="528.3779015637547" opacity="0.3362709312778206"></circle><circle r="4.116292828419025" cx="198.23607508044816" cy="252.14369681638033" opacity="0.30048794289503145"></circle><circle r="3.4773061629637163" cx="37.153196177665414" cy="389.17357766509843" opacity="0.1512691927007913"></circle><circle r="4.710610678825635" cx="433.9285646639465" cy="398.08612399944883" opacity="0.7500280807231753"></circle><circle r="7.852276866256693" cx="516.7351988953446" cy="543.2269334455088" opacity="0.9394273396339023"></circle><circle r="5.450270780275199" cx="316.10544064753157" cy="427.7697904999511" opacity="0.4997174114847195"></circle><circle r="5.777116015931379" cx="125.84628751725697" cy="579.1376545579541" opacity="0.89251387549628"></circle><circle r="4.846714018572744" cx="660.5796410803943" cy="568.0306227362195" opacity="0.1964262778299991"></circle><circle r="6.726304423615016" cx="54.60377773604187" cy="463.6521891367068" opacity="0.9721985383711121"></circle><circle r="5.782525860479871" cx="607.9478569697579" cy="661.6869308000489" opacity="0.6405050586641049"></circle><circle r="5.421856222082749" cx="50.89135354496957" cy="519.3792205824885" opacity="0.8559108458476498"></circle><circle r="4.602069784436661" cx="245.9012621060941" cy="243.81746805105848" opacity="0.571156726637412"></circle><circle r="5.927187446888398" cx="690.4883512182624" cy="325.80357436147915" opacity="0.13946545690769147"></circle><circle r="8.003370894063412" cx="259.11401172713084" cy="573.2490905452846" opacity="0.34925543571994616"></circle><circle r="4.9638033981949095" cx="512.0151550392084" cy="789.957618788601" opacity="0.938473906998016"></circle><circle r="4.612306223104723" cx="691.6013988068144" cy="786.3791613264244" opacity="0.22698711455939752"></circle><circle r="5.397508361428079" cx="61.58977874757961" cy="713.3126992923563" opacity="0.8876876497950313"></circle><circle r="6.5022438423321045" cx="80.9283082606045" cy="429.061551198104" opacity="0.7608301874974134"></circle><circle r="5.769078266324687" cx="787.7915600550896" cy="338.8083465992648" opacity="0.19376549445657454"></circle><circle r="4.9564837232848" cx="690.4759611372683" cy="403.7521859109219" opacity="0.7602980449922958"></circle><circle r="4.7972976161431475" cx="625.847838079827" cy="644.8105253047879" opacity="0.20657994572315025"></circle><circle r="4.379369213799184" cx="781.715716768062" cy="616.481107409201" opacity="0.5929347254698772"></circle><circle r="7.275935446650237" cx="225.19004091218542" cy="481.82129797088123" opacity="0.7587618449760023"></circle><circle r="3.501540115650836" cx="412.4824677503986" cy="55.88123117853499" opacity="0.5945900861053094"></circle><circle r="5.723620294861135" cx="703.4144469644451" cy="288.5490611739137" opacity="0.2781663215239476"></circle><circle r="3.971281195845775" cx="269.1191099083644" cy="92.79878737098261" opacity="0.38635439660413606"></circle><circle r="7.112182959218719" cx="662.1823890657533" cy="305.39140248337344" opacity="0.3073699156456826"></circle><circle r="5.890565334549024" cx="430.52193805014923" cy="302.17485074657765" opacity="0.3339844668343056"></circle><circle r="8.674418426255656" cx="370.8312237226024" cy="653.2517893499892" opacity="0.4747282711646107"></circle><circle r="8.599898152863206" cx="747.969693986269" cy="702.2512614992554" opacity="0.6116162043402081"></circle><circle r="6.993793040659589" cx="400.6767235449167" cy="217.6330795460383" opacity="0.10435218161426987"></circle><circle r="4.208466406625844" cx="173.92437555083407" cy="729.6691571169343" opacity="0.629918525908685"></circle><circle r="5.1520884092316965" cx="220.27715370416075" cy="163.14966512412695" opacity="0.10909844261546778"></circle><circle r="4.422727716990161" cx="274.1068349627746" cy="472.4585758050332" opacity="0.792725398540913"></circle><circle r="8.613032642767324" cx="246.9400180371649" cy="538.1468861063775" opacity="0.18088823490870298"></circle><circle r="8.182060265785168" cx="552.9297132561913" cy="493.7662800418282" opacity="0.8015028346341472"></circle><circle r="4.643679342847863" cx="42.9798948929794" cy="413.9078871553807" opacity="0.11623546621137729"></circle><circle r="4.907879573037279" cx="179.57755874287736" cy="142.11508606307464" opacity="0.2978458099463238"></circle><circle r="6.2932430400251755" cx="474.33870071571675" cy="786.6362261184519" opacity="0.10926062476922924"></circle><circle r="5.138185631804758" cx="296.6994335350131" cy="663.9415901888684" opacity="0.4177063013890958"></circle><circle r="4.905634978407637" cx="292.80513742380595" cy="498.5652029420966" opacity="0.39451094818981314"></circle><circle r="4.885066188136204" cx="179.46629297156437" cy="566.3903891457254" opacity="0.9482605457715003"></circle><circle r="6.944521538162989" cx="297.3287168232824" cy="580.1984210489591" opacity="0.6420213259988544"></circle><circle r="8.419965521729933" cx="96.10849270555946" cy="202.29906700822463" opacity="0.8902047887992864"></circle><circle r="3.6580691705655566" cx="390.4108354342688" cy="490.7465769057719" opacity="0.3465016291312746"></circle><circle r="5.212424652143514" cx="168.38320361698095" cy="693.9584559178818" opacity="0.33886384097178623"></circle><circle r="6.186884490691389" cx="172.86527193233087" cy="258.69356277060086" opacity="0.2605454635665495"></circle><circle r="3.564711701198927" cx="373.02615393408416" cy="789.6430258982655" opacity="0.8134372971287572"></circle><circle r="9.066199526601135" cx="739.1785929180145" cy="746.1815156828208" opacity="0.20257294006202542"></circle><circle r="5.742075727866745" cx="16.967263876388436" cy="535.0525711213718" opacity="0.19002248900771923"></circle><circle r="4.027460267349536" cx="566.0345977039805" cy="364.17039221556854" opacity="0.2391197992100259"></circle><circle r="4.325944959549851" cx="311.12745418067334" cy="302.99119920197694" opacity="0.2651137878420659"></circle><circle r="5.5443109973715465" cx="43.834591478919" cy="130.87205143268957" opacity="0.1332416284176709"></circle><circle r="4.956098182609968" cx="343.04823743153247" cy="199.8851662865106" opacity="0.8636465056838057"></circle><circle r="6.33144738011757" cx="548.3363612050862" cy="391.35230910413367" opacity="0.1864475003700372"></circle><circle r="4.910910132889226" cx="633.148719974216" cy="14.391985115263884" opacity="0.5781674330890872"></circle><circle r="6.772158236332819" cx="778.7736630459161" cy="368.7957150352455" opacity="0.9394222762463165"></circle><circle r="8.82830111204012" cx="212.27699257721082" cy="214.2178404014179" opacity="0.22453465830475755"></circle><circle r="4.6172812020444844" cx="318.3120268400292" cy="487.7562041039701" opacity="0.7479725737881308"></circle><circle r="5.026342507490827" cx="27.877886131348863" cy="682.431874467779" opacity="0.49563012478253654"></circle><circle r="6.325964766767251" cx="173.96433905979447" cy="177.83905093735925" opacity="0.6431716234775704"></circle><circle r="5.546408294336732" cx="718.2033374706689" cy="340.2462924657088" opacity="0.48698021157027016"></circle><circle r="5.488223716876313" cx="690.7109777732837" cy="494.3104781499067" opacity="0.7506796611111255"></circle><circle r="6.846884846817768" cx="387.78362419474104" cy="621.4038234660474" opacity="0.8397341616184506"></circle><circle r="6.711561076925105" cx="720.0644618852215" cy="131.19017935633434" opacity="0.6210131032086091"></circle><circle r="6.039963259835194" cx="722.4569005125721" cy="532.6437856074448" opacity="0.30210718476057863"></circle><circle r="4.463983086204635" cx="135.75387263934243" cy="618.459008468222" opacity="0.7809388115862653"></circle><circle r="4.522949427395174" cx="659.1946504243086" cy="492.70939969547373" opacity="0.47546879221632643"></circle><circle r="5.676937046253253" cx="18.686612996171203" cy="576.3809834644086" opacity="0.7870871007736461"></circle><circle r="3.496575451228358" cx="178.37926345599413" cy="203.8315812176224" opacity="0.8831341810198136"></circle><circle r="5.451368210833779" cx="331.3793760434661" cy="244.0818914918653" opacity="0.5004763728522926"></circle><circle r="3.0199534052508734" cx="425.5485916428929" cy="10.936591776614002" opacity="0.16010412804198576"></circle><circle r="4.293387649048473" cx="288.92984289097376" cy="238.28861631997867" opacity="0.8694704130072942"></circle><circle r="5.211291398161776" cx="705.6456286119895" cy="180.16910768785257" opacity="0.17546312361025357"></circle><circle r="8.48082252133825" cx="195.85029077989898" cy="59.36499503064185" opacity="0.9701991578088968"></circle><circle r="6.712597335194174" cx="266.9899728725874" cy="628.8656457391071" opacity="0.782405408403697"></circle><circle r="6.199873412334789" cx="41.40466088990406" cy="621.7608490870315" opacity="0.5372028606489947"></circle><circle r="6.0538608162663365" cx="526.6934396457808" cy="705.330138169707" opacity="0.1806765527126127"></circle><circle r="6.2630393757949125" cx="244.07881467087017" cy="151.5431203490976" opacity="0.4817244032208813"></circle><circle r="5.7403064056246205" cx="378.5338726925975" cy="758.8973471221376" opacity="0.8254041023779027"></circle><circle r="4.154242567517108" cx="730.5198767149307" cy="634.8300479718073" opacity="0.6298749332486742"></circle><circle r="7.313629945873819" cx="82.52323543830536" cy="290.5726567163816" opacity="0.4500979971890946"></circle><circle r="5.733216939361552" cx="761.7145083858758" cy="199.35233750419368" opacity="0.8619849899107137"></circle><circle r="4.8233275987291115" cx="781.9781890272919" cy="739.6188342361493" opacity="0.9576118656321453"></circle><circle r="8.137081240898235" cx="647.3092471765015" cy="717.0323016544127" opacity="0.5846645971261781"></circle><circle r="4.378195705648534" cx="157.6814849145601" cy="592.2396081988263" opacity="0.9891738697381637"></circle><circle r="4.358151267414837" cx="411.2757671295733" cy="147.06243294527272" opacity="0.6013025473392271"></circle><circle r="4.5212820981175295" cx="446.80073224043497" cy="41.081676736724944" opacity="0.4260998079296111"></circle><circle r="9.049830918262867" cx="33.807892020974954" cy="212.18206772921917" opacity="0.6543940739461669"></circle><circle r="4.613755371148311" cx="525.4491615146866" cy="584.1721790638488" opacity="0.8050742508513824"></circle><circle r="3.2190472347823866" cx="282.6957714762558" cy="520.9643222482696" opacity="0.1674614856869856"></circle><circle r="6.558566898746143" cx="12.6327445271527" cy="399.0131841718332" opacity="0.267263146353126"></circle><circle r="6.51912158094232" cx="629.1738945109649" cy="365.023829947943" opacity="0.6267040641850052"></circle><circle r="3.9546536106716585" cx="789.3731687493871" cy="461.17810564995426" opacity="0.5507516755851705"></circle><circle r="7.769725542146058" cx="44.95862310566681" cy="54.85865160396042" opacity="0.2706488794926019"></circle><circle r="3.666431827423605" cx="462.49553685159736" cy="361.8518783073668" opacity="0.20062117637726384"></circle><circle r="3.218964462255117" cx="591.2007500696562" cy="207.6205100237942" opacity="0.36590739834954966"></circle><circle r="5.699674858858424" cx="137.93623692433854" cy="788.095313890889" opacity="0.10721787521863284"></circle><circle r="4.042277925847799" cx="131.42678832485964" cy="688.0307396706974" opacity="0.6349094995433274"></circle><circle r="4.74649052849796" cx="417.2536127654213" cy="502.20236744493803" opacity="0.2443963295671146"></circle><circle r="5.126671311821772" cx="498.61853881823487" cy="265.69624132320354" opacity="0.43658102983974756"></circle><circle r="4.432442398133977" cx="581.9744300782453" cy="680.7235249418801" opacity="0.2327353440559191"></circle><circle r="5.927013428605086" cx="43.93592477988174" cy="13.768146517484908" opacity="0.4706697297744349"></circle><circle r="4.907334507941756" cx="348.31560760709255" cy="229.54245919215538" opacity="0.7924415564205333"></circle><circle r="6.057367560969711" cx="599.7210734219245" cy="572.4592889723845" opacity="0.560815352512164"></circle><circle r="3.8011905342018877" cx="151.501698467238" cy="147.689642601175" opacity="0.738138607634038"></circle><circle r="6.441618349728429" cx="524.8423869163609" cy="653.6362122529955" opacity="0.18111427011233555"></circle><circle r="4.756461591304334" cx="56.58366616030292" cy="780.6866696343246" opacity="0.7284134454140648"></circle><circle r="4.000275514632526" cx="119.9043891862831" cy="740.2119887687101" opacity="0.9549481726927168"></circle><circle r="4.8903768933812595" cx="626.4680548498937" cy="533.3072524646806" opacity="0.9588318674907249"></circle><circle r="4.547902355433884" cx="445.01898733541606" cy="779.1717024433732" opacity="0.9533021232184035"></circle><circle r="7.110570676143194" cx="108.34771637043188" cy="316.96657958621466" opacity="0.42827611303454716"></circle><circle r="4.304626159479652" cx="589.3043187519532" cy="515.1438758624101" opacity="0.7725475228326945"></circle><circle r="4.593900805207403" cx="153.29427565849863" cy="315.46817492744657" opacity="0.7690874600857814"></circle><circle r="7.530046165417872" cx="666.5046063025756" cy="66.01713905665936" opacity="0.9715665180776514"></circle><circle r="5.96135174093105" cx="158.38397881805238" cy="358.96865049876254" opacity="0.7500327809137072"></circle><circle r="7.375970234800313" cx="637.638144963409" cy="188.20523893006487" opacity="0.8428467746081879"></circle><circle r="4.54698380396732" cx="373.69139250950667" cy="287.6449686342815" opacity="0.7349998329825305"></circle><circle r="6.07280932991703" cx="588.8675035682041" cy="604.2565002254102" opacity="0.7902571681753359"></circle><circle r="7.772683608848302" cx="613.8409972904155" cy="700.315567149783" opacity="0.7953085562275362"></circle><circle r="4.434834706832855" cx="208.0288148290996" cy="138.52323493058253" opacity="0.34667491510864545"></circle><circle r="4.284142573832156" cx="420.2790757787787" cy="81.46074181337762" opacity="0.12945434245531734"></circle><circle r="12.072283042417528" cx="100.10107032923332" cy="24.173064441659108" opacity="0.1413851930141753"></circle><circle r="5.890466621665672" cx="135.93784230703687" cy="68.27459664182713" opacity="0.8036391578715105"></circle><circle r="7.02174695251176" cx="289.56263839562615" cy="733.3866637106188" opacity="0.6902087799020746"></circle><circle r="7.662474628569386" cx="406.6175740632047" cy="426.23485485098786" opacity="0.5509530201668619"></circle><circle r="6.086967462114867" cx="359.0456088070979" cy="420.48137939517244" opacity="0.5685353474835748"></circle><circle r="7.100959953793545" cx="633.8767749608334" cy="252.90229781159658" opacity="0.18756219719341916"></circle><circle r="5.743711679884299" cx="335.28676269533673" cy="312.37797225284396" opacity="0.8851094558155523"></circle><circle r="3.8790521056735336" cx="520.5779525489768" cy="382.69912094773923" opacity="0.8221101211039552"></circle><circle r="5.895760097957604" cx="383.5004379533138" cy="454.66665092266277" opacity="0.37660015850341133"></circle><circle r="5.3155628124153305" cx="488.63450866036027" cy="652.8306169257864" opacity="0.43460617537631485"></circle><circle r="5.718464686369353" cx="442.0097265893446" cy="329.3614401640611" opacity="0.4556009318083627"></circle><circle r="3.973985821925563" cx="273.7665834353181" cy="668.2017488907699" opacity="0.9153580320990444"></circle><circle r="3.122092341377267" cx="317.04731303313173" cy="635.607846562968" opacity="0.15932805758699456"></circle><circle r="4.77505997411609" cx="96.48125398832656" cy="473.2889011833225" opacity="0.11495766973272435"></circle><circle r="4.557520004288641" cx="754.7796024973334" cy="407.85480712395724" opacity="0.5379302697410575"></circle><circle r="4.958836112955985" cx="409.05648374864876" cy="325.5014717591182" opacity="0.7200621190442911"></circle><circle r="6.877629901803962" cx="785.8194950825145" cy="303.67205780681485" opacity="0.6301632959489983"></circle><circle r="6.664722470752689" cx="550.1123189361576" cy="331.0705699037538" opacity="0.19969162937733725"></circle><circle r="5.6640197090086115" cx="360.96881584584145" cy="21.281228633380838" opacity="0.731581915350898"></circle><circle r="3.8804985963590983" cx="127.36122556295084" cy="162.55846903759445" opacity="0.1830797647152898"></circle><circle r="6.736300844137405" cx="683.3243839400931" cy="450.70395008278706" opacity="0.8696269174951743"></circle><circle r="4.854913475312031" cx="37.89330026371064" cy="348.52613136460917" opacity="0.7430873126932914"></circle><circle r="4.747495926183754" cx="494.89743599928335" cy="373.29337983169233" opacity="0.4364581362626556"></circle><circle r="3.720463886443521" cx="327.26260768553084" cy="177.23908920210098" opacity="0.7442051316308675"></circle><circle r="3.8381740464380525" cx="561.0340087390107" cy="37.24711981665897" opacity="0.10774628177034284"></circle><circle r="6.092320981263802" cx="720.9008525493877" cy="672.5333691171647" opacity="0.832518847704649"></circle><circle r="4.705961841033465" cx="270.6983780862959" cy="19.461470650520145" opacity="0.29866914413188284"></circle><circle r="3.6395432979571942" cx="505.81755832875444" cy="733.4254489476276" opacity="0.6817375048292321"></circle><circle r="4.584887771418364" cx="104.89405455531367" cy="620.1141224508447" opacity="0.9753214134879924"></circle><circle r="7.312723006090368" cx="83.75869634731401" cy="85.86758905969558" opacity="0.32451187688134375"></circle><circle r="4.587853054902544" cx="463.39271835087146" cy="448.25914224558096" opacity="0.4751643174678798"></circle><circle r="6.7284199540763705" cx="143.86329027138774" cy="248.68663241410817" opacity="0.14428986355897572"></circle><circle r="4.723385432856457" cx="344.8296729337033" cy="619.4276595692411" opacity="0.16185674829565355"></circle><circle r="4.957180360457042" cx="198.45639782689463" cy="171.21041579484282" opacity="0.7259951720243447"></circle><circle r="6.059338503312864" cx="132.1242079270042" cy="488.32441406502005" opacity="0.20489502683261926"></circle><circle r="3.528029238784002" cx="291.7223654967461" cy="46.21921272397082" opacity="0.456790867356313"></circle><circle r="4.98864947843379" cx="429.2236387031567" cy="241.0589812661141" opacity="0.7815076247613132"></circle><circle r="4.523488553084063" cx="759.4777372233581" cy="237.765969652846" opacity="0.6441766970719505"></circle><circle r="4.160101463838203" cx="767.329301637139" cy="448.45839041743073" opacity="0.4398530641557973"></circle><circle r="3.579473975637722" cx="225.57255164833822" cy="329.38878285329235" opacity="0.20969712890164116"></circle><circle r="4.394267727313542" cx="163.51385471649516" cy="435.7946030832844" opacity="0.7579445349651379"></circle><circle r="5.897469351245951" cx="605.9272344324964" cy="296.80652899785605" opacity="0.37370118390965434"></circle><circle r="4.559257366304825" cx="532.6125785196217" cy="743.9364437189515" opacity="0.37579596319393416"></circle><circle r="4.703765833547524" cx="556.5847769036092" cy="567.2426619618035" opacity="0.4774712435054208"></circle><circle r="9.76256695826065" cx="473.8122892620086" cy="523.3295980028787" opacity="0.8951100813796031"></circle><circle r="3.934817118525125" cx="12.164333017193151" cy="365.667415517262" opacity="0.7632792880314874"></circle><circle r="4.8252906115926395" cx="13.578232556841506" cy="111.3939049536752" opacity="0.36590965899041594"></circle><circle r="9.540785937572455" cx="487.2445788168453" cy="51.28605363801009" opacity="0.9897210016506575"></circle><circle r="6.027156298891583" cx="103.87526551998499" cy="390.2548823326686" opacity="0.10598682047583582"></circle><circle r="7.330535609054948" cx="357.95344316983994" cy="519.6042395000818" opacity="0.7006274030757157"></circle><circle r="5.703144237525224" cx="119.55900464907282" cy="108.63709477324127" opacity="0.3998937461332518"></circle><circle r="6.779788186285922" cx="779.9911839559379" cy="506.1037785340613" opacity="0.7588557541209283"></circle><circle r="5.9490285769874465" cx="207.9672659328395" cy="693.3192977445382" opacity="0.47808781770735875"></circle><circle r="7.886172099813947" cx="322.63266361695497" cy="547.0872864749512" opacity="0.12138053003781554"></circle><circle r="4.606142177040302" cx="140.20291916738856" cy="723.1898700832479" opacity="0.8295430462048627"></circle><circle r="4.062365835045137" cx="150.21726009139863" cy="403.749391498303" opacity="0.15997584348407504"></circle><circle r="7.669105711385397" cx="285.95039290260934" cy="268.9314299618478" opacity="0.6604430628546533"></circle><circle r="2.81546069769936" cx="640.3154558656104" cy="660.3906730161743" opacity="0.11678007352496861"></circle><circle r="5.797189950895973" cx="392.45514761694363" cy="180.1066506529714" opacity="0.44910867078094474"></circle><circle r="5.32888498531314" cx="470.7369644650778" cy="620.5518104175443" opacity="0.5022839634082994"></circle><circle r="4.9455173526882685" cx="225.5917325770775" cy="365.379485561262" opacity="0.7814149947985266"></circle><circle r="5.897519988471341" cx="163.94729259607988" cy="756.6228143946768" opacity="0.2070048395039724"></circle><circle r="5.771661387525958" cx="215.49184741866821" cy="282.5953232444581" opacity="0.17609995538369178"></circle><circle r="4.958766421195655" cx="615.8790074311336" cy="467.81079133411754" opacity="0.45013990691716255"></circle><circle r="6.282811330578191" cx="577.9867154564743" cy="302.85533145859443" opacity="0.6101548324545079"></circle><circle r="8.824840181706438" cx="210.16194602620155" cy="448.2245322717396" opacity="0.658875251440874"></circle><circle r="5.310474601482605" cx="418.2181210026525" cy="756.927388244079" opacity="0.2687890762272621"></circle><circle r="6.2441732918851525" cx="401.57746857834314" cy="727.3193172933313" opacity="0.13226443432012935"></circle><circle r="7.306466114157091" cx="684.691944490207" cy="238.59079760394874" opacity="0.6882986468694674"></circle><circle r="4.973961349888877" cx="562.6948496500584" cy="69.49228407691693" opacity="0.37610156411043016"></circle><circle r="4.9933309575262355" cx="522.3344468567047" cy="313.3280621405885" opacity="0.5244588171936901"></circle><circle r="3.040575179238123" cx="414.88454832725006" cy="31.13897549489552" opacity="0.9289663880296116"></circle><circle r="5.081143670492315" cx="241.01475647779927" cy="720.0857926172873" opacity="0.7521909867528146"></circle><circle r="6.046090126434947" cx="539.7634695395075" cy="169.4429745029793" opacity="0.5237561907436509"></circle><circle r="3.7578079047737547" cx="559.4766689629739" cy="725.615613518265" opacity="0.9803653116440607"></circle><circle r="3.3058719954019065" cx="326.271571427644" cy="659.0176427295266" opacity="0.42890976343392906"></circle><circle r="5.198168921361193" cx="66.77935201140993" cy="329.4243668452456" opacity="0.29654958546225585"></circle><circle r="3.8054406960123766" cx="250.0159305046604" cy="112.2953457162747" opacity="0.3463877425071299"></circle><circle r="5.593608921946654" cx="338.62654726622196" cy="583.8138611686186" opacity="0.5864115807480712"></circle><circle r="5.622737157032912" cx="461.23437226846426" cy="188.75161254647045" opacity="0.36845149470240135"></circle><circle r="3.857547854445823" cx="250.48549523080453" cy="283.59539595780467" opacity="0.19674001264171975"></circle><circle r="7.1652179357630015" cx="495.1155556842142" cy="190.44358337260644" opacity="0.9094071290875966"></circle><circle r="6.434372066263316" cx="289.534815933351" cy="762.652416495083" opacity="0.6939446950011505"></circle><circle r="5.098099944576638" cx="433.31223180087966" cy="169.7153155371629" opacity="0.35450216937765167"></circle><circle r="3.9580008728376117" cx="504.1837361828471" cy="481.23468862577687" opacity="0.3173319159131604"></circle><circle r="3.413768475333248" cx="733.2170827394127" cy="509.3145544350841" opacity="0.806124905392362"></circle><circle r="4.720260432671086" cx="58.46501200062099" cy="182.58793844508327" opacity="0.32821578417407704"></circle><circle r="4.590054516343489" cx="344.9477228596321" cy="448.88923957415426" opacity="0.7084696732391205"></circle><circle r="3.289313592577732" cx="177.28875856756483" cy="286.0780508473616" opacity="0.40037263863788053"></circle><circle r="4.775498758158161" cx="787.5334061550386" cy="648.0844651962498" opacity="0.7378348182530253"></circle><circle r="4.528141429893324" cx="176.93491876553233" cy="380.88536653649845" opacity="0.786424327944333"></circle><circle r="4.49486842543994" cx="668.2224256082252" cy="270.1976811292845" opacity="0.489183913565573"></circle><circle r="4.3264977362476476" cx="395.96180306888016" cy="567.2403695729222" opacity="0.4289297812826587"></circle><circle r="5.192746564147398" cx="235.20181527281184" cy="763.4318616579712" opacity="0.491414319257772"></circle><circle r="4.552766399595594" cx="552.2202950684601" cy="236.5113428458889" opacity="0.7195711248761814"></circle><circle r="5.736270545896161" cx="242.64834603420425" cy="603.701503510779" opacity="0.30043846936060303"></circle><circle r="5.506758390102602" cx="532.2455352414042" cy="352.95143871554586" opacity="0.2711997456904307"></circle><circle r="5.303525251559251" cx="243.83730458304188" cy="420.729965098299" opacity="0.48807782626704543"></circle><circle r="7.0993556665787105" cx="289.96479204868103" cy="185.7395917096233" opacity="0.1888547536385134"></circle><circle r="3.5630536705212963" cx="149.90508351695027" cy="671.594001038734" opacity="0.9449238006030617"></circle><circle r="4.214802573506063" cx="255.1433857029817" cy="658.2238467559619" opacity="0.7996104646328986"></circle><circle r="5.180044147111374" cx="522.2269020170082" cy="420.6752115903241" opacity="0.14872173085658852"></circle><circle r="5.718884816707106" cx="167.81041319735044" cy="226.79107505483165" opacity="0.5846132776102434"></circle><circle r="3.607477997443139" cx="164.293011289313" cy="469.0491899649321" opacity="0.9262415614774331"></circle><circle r="8.335170602942398" cx="683.5245416627886" cy="107.21808552309903" opacity="0.12032249740804019"></circle><circle r="6.560195597233193" cx="148.4997765354619" cy="553.9431052502937" opacity="0.5338926317406464"></circle><circle r="6.658250288373999" cx="246.55145133452638" cy="385.6948333756135" opacity="0.33507376311662196"></circle><circle r="8.62495422554376" cx="749.3261477145659" cy="482.8780973565849" opacity="0.5507711888826939"></circle><circle r="4.367444419389049" cx="558.7026113494028" cy="111.58197243497052" opacity="0.26260141791224056"></circle><circle r="3.5550831512805874" cx="786.0597852756588" cy="407.97174831150835" opacity="0.8715280261498779"></circle><circle r="3.946512720095806" cx="644.65061517503" cy="788.5180492354234" opacity="0.5058335726841919"></circle><circle r="5.777414078370822" cx="699.8970223286802" cy="23.421841441985734" opacity="0.3625619629194411"></circle><circle r="3.636124336403334" cx="393.02440257684447" cy="85.54779452320147" opacity="0.7449895211733921"></circle><circle r="4.654314559188968" cx="193.07096677161167" cy="711.6101470067059" opacity="0.5316894634045743"></circle><circle r="3.3595020641899165" cx="469.78806334343085" cy="750.3227466582515" opacity="0.4754049548218733"></circle><circle r="4.30793155831041" cx="376.743213676885" cy="592.8236163187044" opacity="0.12343859392374162"></circle><circle r="4.493541261669139" cx="486.8667706138642" cy="711.1026830041359" opacity="0.6204363421882473"></circle><circle r="3.800837582684748" cx="232.4559582132522" cy="126.31941101799262" opacity="0.28972096447039897"></circle><circle r="4.455096035683486" cx="213.76681609188336" cy="553.910358297864" opacity="0.47635713777642563"></circle><circle r="5.055199185050744" cx="618.608176078848" cy="439.10291025813507" opacity="0.7376195273354981"></circle><circle r="6.10897294950052" cx="73.53310265122812" cy="126.02433535923869" opacity="0.4379209739933866"></circle><circle r="7.639849064031598" cx="472.9344704458307" cy="141.69903020057646" opacity="0.1589455946981008"></circle><circle r="6.305362512769167" cx="784.9780836086309" cy="585.3183473370456" opacity="0.6136866347842156"></circle><circle r="6.377282427292256" cx="189.29679515560673" cy="486.1948628804047" opacity="0.5108788149631311"></circle><circle r="6.425701144775783" cx="531.9730394223462" cy="79.4992724711368" opacity="0.333527729713859"></circle><circle r="7.2175376337446675" cx="560.2818727147973" cy="423.32810116702154" opacity="0.5105800464533905"></circle><circle r="7.309718333515394" cx="203.12385281285842" cy="521.7697334467606" opacity="0.7096289351453511"></circle><circle r="4.412068947980339" cx="190.97347041669568" cy="784.4070908514251" opacity="0.8670368407279496"></circle><circle r="5.110434912531019" cx="166.55040737664163" cy="514.52401527815" opacity="0.21508239384106154"></circle><circle r="4.500237157257269" cx="286.6534814044054" cy="697.3924901667708" opacity="0.4990344911659903"></circle><circle r="4.0351299134586585" cx="661.3008416110708" cy="626.8096403968145" opacity="0.7706331830702796"></circle><circle r="6.971461148634611" cx="338.7360624699613" cy="117.36476053053042" opacity="0.8620697402103159"></circle><circle r="6.078522213601348" cx="355.3946804301999" cy="483.954297504077" opacity="0.6715700038449891"></circle><circle r="4.428297827543758" cx="13.655334906654454" cy="244.32783606049762" opacity="0.3611238394413503"></circle><circle r="7.825017112704018" cx="744.5061912140742" cy="360.0604790437292" opacity="0.884851517966433"></circle><circle r="5.7029140792014275" cx="353.52093618082097" cy="552.7483750989703" opacity="0.17025638019912612"></circle><circle r="5.756344111237056" cx="340.8666218523294" cy="31.171417930938745" opacity="0.9365732123953897"></circle><circle r="4.274657641141373" cx="10.060274954883013" cy="703.2463105477312" opacity="0.32438586474828235"></circle><circle r="5.111042306808223" cx="204.07720558794264" cy="746.3872448925025" opacity="0.6543311289493761"></circle><circle r="6.060569921787713" cx="691.2942487204339" cy="670.5642615952764" opacity="0.8392477365547045"></circle><circle r="5.409991580109802" cx="224.190782477565" cy="257.6130847692306" opacity="0.21345775877210066"></circle><circle r="5.2026028963600455" cx="568.4437084856328" cy="464.47391529452324" opacity="0.9153672773163183"></circle><circle r="3.6549451573792755" cx="365.2784841935956" cy="110.01166272540989" opacity="0.9540505820806647"></circle><circle r="4.396157383315454" cx="388.5857331636045" cy="145.04854676226708" opacity="0.10207391796710172"></circle><circle r="6.739269198352606" cx="681.9514275812089" cy="156.14994476923465" opacity="0.1561050820641921"></circle><circle r="4.772179919820127" cx="47.85396380879397" cy="91.18235913889318" opacity="0.8042012674259714"></circle><circle r="6.016509397111928" cx="581.2709131038696" cy="644.5517343044985" opacity="0.4164100949201639"></circle><circle r="7.478087516085808" cx="261.74620367470186" cy="214.97583568849672" opacity="0.22366669478045897"></circle><circle r="5.222206303743927" cx="373.53383944705627" cy="229.6040254495282" opacity="0.7984812195048913"></circle><circle r="3.422145052495628" cx="664.969465987614" cy="406.6601245409827" opacity="0.9619022248731954"></circle><circle r="4.797878407107653" cx="186.88476324839638" cy="414.28847767837823" opacity="0.8448131361216973"></circle><circle r="4.399817695930015" cx="648.4159268968872" cy="389.8364979220529" opacity="0.13893892810431213"></circle><circle r="7.011975410303212" cx="19.325749863156656" cy="167.0381680923865" opacity="0.4880744406342019"></circle><circle r="4.861558427388564" cx="217.88774380122723" cy="88.98282763901949" opacity="0.9862924835142517"></circle><circle r="8.129714505469057" cx="529.6734914421872" cy="39.1155469200478" opacity="0.6361975203108664"></circle><circle r="5.00795197833567" cx="416.38007455570545" cy="562.3082433924543" opacity="0.2811554939775591"></circle><circle r="6.992534543454603" cx="326.8682803872407" cy="89.12061153306423" opacity="0.44997824185016766"></circle><circle r="4.794480000252692" cx="390.1186119382026" cy="29.193837874434507" opacity="0.7823350762312746"></circle><circle r="3.880021790926961" cx="709.1015087637345" cy="423.9765162746097" opacity="0.48445747254406624"></circle><circle r="2.6762273893586337" cx="483.4206476954707" cy="313.72827066822487" opacity="0.8977064583067447"></circle><circle r="4.212948875351609" cx="192.20437312136" cy="301.4524104199879" opacity="0.8424982636384455"></circle><circle r="5.648921954479901" cx="444.64338442312055" cy="104.57396557777692" opacity="0.47214027137117376"></circle><circle r="5.091986504199085" cx="105.17793896506363" cy="65.74964708807502" opacity="0.107437405698174"></circle><circle r="6.916607791298144" cx="359.69234215150954" cy="707.8571696381691" opacity="0.8597365726107518"></circle><circle r="5.137099466951115" cx="667.9130770245573" cy="19.896255508338438" opacity="0.6708847422335186"></circle><circle r="5.243286922109781" cx="287.716347577933" cy="152.59684152135904" opacity="0.3405574908763182"></circle><circle r="4.312326775070161" cx="444.3239262602472" cy="275.62960584519874" opacity="0.45954810641213795"></circle><circle r="3.9820253027230104" cx="62.914421973349256" cy="748.6252586357284" opacity="0.291582211260492"></circle><circle r="4.202806301641115" cx="457.49383305335846" cy="304.46206454211324" opacity="0.9614634186815011"></circle><circle r="6.215254439160072" cx="73.79544626857077" cy="156.65119212046514" opacity="0.7926651788765696"></circle><circle r="7.5267526371948" cx="666.4287876025794" cy="758.9710519376337" opacity="0.9301025660153361"></circle><circle r="4.921558529425692" cx="516.6006083632827" cy="113.0333027765918" opacity="0.13669041116000252"></circle><circle r="4.555466787024492" cx="787.8499055517077" cy="217.103909527169" opacity="0.8736352363933971"></circle><circle r="6.132502230451514" cx="725.7896857472049" cy="390.48443436154275" opacity="0.1750141843779297"></circle><circle r="5.920461476384537" cx="596.9411767391881" cy="266.10420302756063" opacity="0.3422574960193506"></circle><circle r="6.470608141917042" cx="25.17184859329028" cy="734.552688720354" opacity="0.8239639337777597"></circle><circle r="4.718888799928866" cx="428.2830378664108" cy="204.94427126726518" opacity="0.12365419559628144"></circle><circle r="6.872584603148075" cx="658.051340777408" cy="345.7237300464743" opacity="0.8640485149089099"></circle><circle r="8.237824759787948" cx="630.5818873984522" cy="106.46095589514636" opacity="0.7582366545231491"></circle><circle r="6.5894315138439215" cx="558.7358934223537" cy="207.22854301232238" opacity="0.2735027829574127"></circle><circle r="6.130317690363274" cx="606.2034698070195" cy="781.4227639323406" opacity="0.8357169582219693"></circle><circle r="6.1635157206111435" cx="487.3903700046368" cy="93.01028568946604" opacity="0.4212900524729768"></circle><circle r="4.69341704962787" cx="97.58662431165835" cy="693.7367765251183" opacity="0.15589346813727084"></circle><circle r="3.2375364484851925" cx="269.59445707903905" cy="130.54224864217142" opacity="0.14725165929204034"></circle><circle r="3.928957657092157" cx="758.198598834138" cy="627.2561548145356" opacity="0.7665781717625244"></circle><circle r="5.74248739232238" cx="312.61691902391397" cy="14.721199776011256" opacity="0.4823038368385383"></circle><circle r="3.7206689933087156" cx="94.93609854385497" cy="592.6784819533923" opacity="0.15173784107766575"></circle><circle r="8.838807731890618" cx="103.36147493075987" cy="653.4700127653001" opacity="0.25531472754877366"></circle><circle r="5.4863581874734795" cx="612.5458401859263" cy="29.434199552906996" opacity="0.47882731201454"></circle><circle r="8.32982158929031" cx="14.746084230171174" cy="637.0912639884738" opacity="0.7254454927576485"></circle><circle r="7.124300732063088" cx="778.1713432304084" cy="35.18645822245935" opacity="0.3240274356845454"></circle><circle r="6.768837738182803" cx="597.9406820839421" cy="739.2036835097877" opacity="0.3155505638346059"></circle><circle r="5.866388875665716" cx="430.52534366207635" cy="372.81541316297506" opacity="0.8860114647622138"></circle><circle r="9.684583094760253" cx="751.6324349144564" cy="83.85260293225485" opacity="0.8810661021626248"></circle><circle r="4.3512538799022265" cx="109.63820885404348" cy="765.4098694107087" opacity="0.37396339496838704"></circle><circle r="4.559089052854219" cx="382.2604648750663" cy="253.84133606919116" opacity="0.4730742438541724"></circle><circle r="4.583507682967938" cx="43.824196076395594" cy="439.91179191592096" opacity="0.8086479005313301"></circle><circle r="5.5546280857000845" cx="554.6655773482771" cy="641.3474788719059" opacity="0.9257227927434248"></circle><circle r="7.618150779662461" cx="17.79016579822233" cy="329.37875512773536" opacity="0.20108779994887638"></circle><circle r="6.09470777635926" cx="431.53640128287253" cy="728.4731073952117" opacity="0.37073821249121597"></circle><circle r="7.138001110368346" cx="583.8908031281916" cy="96.64171998020527" opacity="0.6639562748819862"></circle><circle r="5.166558148383099" cx="684.4200380566231" cy="634.1991553468276" opacity="0.2297964041811419"></circle><circle r="6.5440196750053214" cx="351.88492521942084" cy="376.14370288126463" opacity="0.5542827038287137"></circle><circle r="6.6251165521198505" cx="232.57382987459474" cy="637.0582468773927" opacity="0.5485183507966547"></circle><circle r="4.620895802439461" cx="507.0343998237719" cy="331.77218802708285" opacity="0.21359058887050525"></circle><circle r="3.9237871534825044" cx="564.2788116320213" cy="757.0191741237475" opacity="0.46978445005386016"></circle><circle r="5.4818486704037666" cx="778.7758833511392" cy="115.009490765599" opacity="0.21029819813045253"></circle><circle r="3.107019884219037" cx="548.999420140081" cy="306.10232816347695" opacity="0.44904424661586506"></circle><circle r="10.208761794753352" cx="746.8877658240602" cy="584.133463381453" opacity="0.16548827458391852"></circle><circle r="5.2839111516002735" cx="254.70082127055755" cy="690.644262336235" opacity="0.23709140608922954"></circle><circle r="4.032146781370304" cx="572.80609040055" cy="785.2803620450969" opacity="0.5697634911294344"></circle><circle r="3.5852102056677717" cx="522.2346617256846" cy="282.82367309138436" opacity="0.5336776096062451"></circle><circle r="5.205719096336471" cx="663.1475892827195" cy="533.7949751881478" opacity="0.760770557292881"></circle><circle r="3.820238603266182" cx="529.3698196724803" cy="253.60519699095747" opacity="0.6050069196059223"></circle><circle r="4.869056927305525" cx="644.8729150766313" cy="602.7670641397079" opacity="0.4008007496748832"></circle><circle r="7.369035829031134" cx="349.0470321904217" cy="64.36040746576224" opacity="0.5705469273285838"></circle><circle r="3.9948438507108257" cx="464.06495965985425" cy="391.628988871475" opacity="0.5264826618858326"></circle><circle r="7.002865659397395" cx="723.8255291673696" cy="201.00829793379023" opacity="0.8663210868479151"></circle><circle r="8.071235526924099" cx="453.5139124413422" cy="73.5934335720273" opacity="0.45339012551299795"></circle><circle r="4.3799813025437375" cx="641.102888850555" cy="220.09728720541207" opacity="0.8196881742524414"></circle><circle r="4.9884808727390455" cx="101.11731769089648" cy="162.1511202553466" opacity="0.9000296613832268"></circle><circle r="6.0075382071861405" cx="259.9546064205375" cy="175.3198640996103" opacity="0.933393060212116"></circle><circle r="5.398080422998561" cx="248.86094633330146" cy="502.8088784692643" opacity="0.8469796950005398"></circle><circle r="3.6875554205191072" cx="140.096023819639" cy="760.3803826078229" opacity="0.4409360592854086"></circle><circle r="5.467918712486889" cx="497.9948256672908" cy="449.79709021552884" opacity="0.4986737131504636"></circle><circle r="5.175604069374461" cx="173.4218240726952" cy="633.5799067989649" opacity="0.24035934479027482"></circle><circle r="6.104318454654709" cx="232.0463343544916" cy="49.73518504356136" opacity="0.6658002265661384"></circle><circle r="4.020314536352373" cx="629.2863627309077" cy="495.2503690120539" opacity="0.9591005533991672"></circle><circle r="7.5349422536354815" cx="771.7020160012936" cy="546.5136879450114" opacity="0.4509651135326389"></circle><circle r="7.092970165355968" cx="469.640096681333" cy="221.22612692413335" opacity="0.6766866839314022"></circle><circle r="4.964509072622161" cx="608.7966103911904" cy="53.04613549325789" opacity="0.12593373439145458"></circle><circle r="5.674750498160507" cx="200.9745592658639" cy="20.73773900584716" opacity="0.917656685833748"></circle><circle r="4.063855712682821" cx="256.9854724723204" cy="448.22044902449414" opacity="0.7170281267966303"></circle><circle r="5.820468319989766" cx="466.2556118513805" cy="14.850969783559737" opacity="0.5568806773171125"></circle><circle r="4.521283880521314" cx="620.3767767065607" cy="391.58108412090036" opacity="0.48900744217271397"></circle><circle r="7.517923866297316" cx="531.8750632517267" cy="618.5577159792451" opacity="0.8867724242768109"></circle><circle r="5.813018789417754" cx="674.3687153450412" cy="200.0572941444458" opacity="0.9056968692173285"></circle><circle r="4.331944134922482" cx="149.06572551619382" cy="649.2052286116217" opacity="0.7348177801356173"></circle><circle r="6.081021902264354" cx="427.1370147676215" cy="346.294408416809" opacity="0.7459778527886011"></circle><circle r="7.441145811683718" cx="526.6005447844401" cy="197.01872735790386" opacity="0.5298722596635701"></circle><circle r="5.74045600756892" cx="445.0674059760389" cy="561.0159528659692" opacity="0.6208372768083227"></circle><circle r="9.398121919910592" cx="506.9529229876936" cy="150.45906977957793" opacity="0.716709396789894"></circle><circle r="5.7487792444584365" cx="389.2105049871733" cy="531.0101821213926" opacity="0.13889762551025353"></circle><circle r="5.992705849480583" cx="772.5436168818094" cy="779.9783679370116" opacity="0.20667066023570185"></circle><circle r="4.627698073057454" cx="242.8514176191694" cy="81.40929294498932" opacity="0.17626973631683573"></circle><circle r="4.063174845334808" cx="607.608251909882" cy="79.26086092487343" opacity="0.11730061730641637"></circle><circle r="5.754731011175052" cx="209.54339345356087" cy="592.8215630566589" opacity="0.14787209951097047"></circle><circle r="7.549748483054533" cx="681.7914697644024" cy="706.1088185623958" opacity="0.7024508281682609"></circle><circle r="5.4290655487327495" cx="487.13957590756513" cy="561.0630503138003" opacity="0.686436749898318"></circle><circle r="5.823526715079482" cx="308.93029943912427" cy="356.0881315333422" opacity="0.6963430667823794"></circle><circle r="6.439636742342774" cx="730.4227734500945" cy="271.68464107860166" opacity="0.7867767482077201"></circle><circle r="6.657778017268427" cx="676.5257763559182" cy="597.2688785168003" opacity="0.4343802963398461"></circle><circle r="6.715718680878234" cx="38.75742401783601" cy="264.20365561429367" opacity="0.10520084039959865"></circle><circle r="5.50880136134351" cx="156.74819588513233" cy="20.1950815329356" opacity="0.22186619653137657"></circle><circle r="3.4998651615725462" cx="77.39494681492044" cy="498.5660586964406" opacity="0.1882581511707891"></circle><circle r="6.166435697970237" cx="289.1412845240446" cy="547.86203403104" opacity="0.9090478946504941"></circle><circle r="5.4362671058570164" cx="132.06003802873175" cy="341.1371365818734" opacity="0.8560494071933521"></circle><circle r="6.07782895613113" cx="632.7539664668652" cy="755.8892261261874" opacity="0.556356903222335"></circle><circle r="8.09411174574063" cx="407.6740781458041" cy="650.7394412690877" opacity="0.19612432809024324"></circle><circle r="3.8881469334411722" cx="269.66408200093986" cy="61.62165996721443" opacity="0.972349985219915"></circle><circle r="4.897869457034514" cx="534.4891427252367" cy="458.8499470125796" opacity="0.7924825366120878"></circle><circle r="7.986523474457528" cx="322.677452082792" cy="708.868511216031" opacity="0.810077087637927"></circle><circle r="5.588793051991401" cx="357.11398787469795" cy="136.8857981190446" opacity="0.7407422755288715"></circle><circle r="4.503532316741439" cx="699.115761960181" cy="752.6857640389856" opacity="0.87508078487153"></circle><circle r="5.589683076270646" cx="177.25472543776817" cy="609.7120990018167" opacity="0.32072664372592485"></circle><circle r="2.819169949352176" cx="381.67488127757116" cy="7.762785615116022" opacity="0.49353048365938923"></circle><circle r="6.470786711046701" cx="130.45177405489994" cy="455.15993339331453" opacity="0.5917754089454333"></circle><circle r="6.479716698060592" cx="493.15130051421704" cy="399.09073882924713" opacity="0.5233578997368181"></circle><circle r="6.28181136989998" cx="346.88938220180677" cy="674.5120656526773" opacity="0.15853589374333932"></circle><circle r="4.918551311780789" cx="559.3088234701592" cy="532.8492982136453" opacity="0.9719645715823982"></circle><circle r="3.5750159446757586" cx="184.3766574002746" cy="87.97427806855028" opacity="0.38906731996218247"></circle><circle r="5.33824021763555" cx="495.1170989749508" cy="595.165336404986" opacity="0.20010810060669026"></circle><circle r="6.4652171338909925" cx="16.70375691739877" cy="294.04381021386945" opacity="0.3352188241532702"></circle><circle r="5.831539762545752" cx="465.1157235440606" cy="249.82849339704129" opacity="0.935403089260064"></circle><circle r="3.208869229008901" cx="391.6032037475566" cy="345.60597581248703" opacity="0.8862024633253099"></circle><circle r="3.1838155885534265" cx="375.29079782701245" cy="561.0923393236136" opacity="0.34884277178870515"></circle><circle r="5.3277688655937245" cx="383.4164339277901" cy="397.82910089690193" opacity="0.44259074714689695"></circle><circle r="8.105345984855184" cx="90.17138097967329" cy="354.8516149289389" opacity="0.8485002463956105"></circle><circle r="8.235856000052816" cx="117.07686289564202" cy="426.2798148532548" opacity="0.4763628486114547"></circle><circle r="4.4049771464841525" cx="70.0327440548146" cy="388.6018286361981" opacity="0.18869976541099354"></circle><circle r="3.5382982323546965" cx="117.62375657554314" cy="709.2709655310159" opacity="0.6874729741007419"></circle><circle r="3.689171884073208" cx="763.36687571684" cy="272.25586718479155" opacity="0.7133036093232515"></circle><circle r="7.360354542325835" cx="310.00093762442725" cy="212.3849375789991" opacity="0.8855725391060238"></circle><circle r="4.80870745420121" cx="545.7812114988153" cy="675.2957746846879" opacity="0.9267421882168125"></circle><circle r="4.440404598748053" cx="304.9453388745806" cy="394.1326363358312" opacity="0.922787603209684"></circle><circle r="6.438340638092907" cx="19.625890825175833" cy="776.7102354880244" opacity="0.3938199532850304"></circle><circle r="8.253800732457538" cx="648.1741746744024" cy="145.7896791400761" opacity="0.2812336064841786"></circle><circle r="7.687330485812186" cx="141.52399018048135" cy="194.95433825038916" opacity="0.727048256422841"></circle><circle r="5.525497008270181" cx="315.5633332599578" cy="57.737165630301675" opacity="0.8916562412769454"></circle><circle r="5.217485958389412" cx="279.3155484354837" cy="342.7708425250659" opacity="0.32830415038434535"></circle><circle r="5.576625585729199" cx="571.0449097392893" cy="165.32883731890647" opacity="0.10267111462887853"></circle><circle r="5.109052345873912" cx="718.5891386921887" cy="469.45607997945496" opacity="0.308915598288069"></circle><circle r="4.4164131454111075" cx="293.9723003269015" cy="99.48033490476837" opacity="0.24159895950552873"></circle><circle r="6.165575507197811" cx="737.3116871026087" cy="20.846296146530136" opacity="0.977443197586663"></circle><circle r="5.3888665914933345" cx="788.4865102275005" cy="260.9496786266351" opacity="0.5432159637678782"></circle><circle r="7.6257903280333" cx="162.36657530284958" cy="59.471858609053605" opacity="0.7731777861072702"></circle><circle r="7.75692387043149" cx="11.841680492835861" cy="38.28947926905199" opacity="0.9347920048935761"></circle><circle r="4.607600877828225" cx="51.376004683933175" cy="300.35694716174686" opacity="0.4582490062334117"></circle><circle r="5.669574703912884" cx="446.81268897568447" cy="708.5984763342764" opacity="0.4788903332303016"></circle><circle r="2.738575620131537" cx="218.5261452997072" cy="307.4112928405557" opacity="0.9674989905081331"></circle><circle r="4.812354734407427" cx="505.3236569178685" cy="680.971802115032" opacity="0.4858743390044975"></circle><circle r="7.4655183548946535" cx="745.6655767529718" cy="159.37291979982362" opacity="0.214881656764674"></circle><circle r="6.705173549968411" cx="13.28817724998631" cy="439.7843093158131" opacity="0.8966234621562525"></circle><circle r="5.721302650061575" cx="564.0191394130619" cy="268.7830444441132" opacity="0.4319384369861553"></circle><circle r="6.388791971693393" cx="628.0234458164766" cy="582.2759843640321" opacity="0.9116634132005864"></circle><circle r="4.707160435951603" cx="585.423908640283" cy="338.2839285182495" opacity="0.5904421123283572"></circle><circle r="5.350849482031889" cx="386.41382884214966" cy="313.8051100604811" opacity="0.6773277974149907"></circle><circle r="5.114598377768914" cx="236.92004793843358" cy="15.483221324661178" opacity="0.9777147733068294"></circle><circle r="5.054986407920635" cx="177.31203567329288" cy="111.71000828242147" opacity="0.13636416773444318"></circle><circle r="4.408210084560552" cx="472.61722429122403" cy="682.6522839982644" opacity="0.9101350414884191"></circle><circle r="5.03331484611628" cx="354.80327239482324" cy="739.3500462683891" opacity="0.2931361245577645"></circle><circle r="6.252112945363352" cx="617.3813909993381" cy="337.61657632191105" opacity="0.8708782790482283"></circle><circle r="5.921371611565306" cx="207.18476304882853" cy="114.10075158719462" opacity="0.6950930515817502"></circle><circle r="5.486081420216135" cx="509.9098210763493" cy="14.69696214771803" opacity="0.6063685822780901"></circle><circle r="3.1270313302327537" cx="454.04329771170575" cy="738.5949137671189" opacity="0.5496754266533131"></circle><circle r="3.5642393131728602" cx="606.6410533045213" cy="415.91281940564625" opacity="0.20811633199658025"></circle><circle r="7.371231565064456" cx="440.61100770111625" cy="135.43581930305564" opacity="0.5243355412249054"></circle><circle r="4.310737934018938" cx="284.28828799445927" cy="427.1437902803878" opacity="0.6850849860101048"></circle><circle r="7.186055106485332" cx="711.1652736697744" cy="64.63885567348105" opacity="0.6042065112853396"></circle><circle r="5.084638866581247" cx="201.5682906462557" cy="371.8277422699783" opacity="0.47449105656953905"></circle><circle r="4.190194719769179" cx="261.6818905213181" cy="310.31195583765594" opacity="0.9143722876137365"></circle><circle r="5.573602954133248" cx="116.59714738651228" cy="513.7539133617967" opacity="0.41996235716823294"></circle><circle r="5.8849182252889225" cx="309.8500294298477" cy="125.82074826568126" opacity="0.8226027631000619"></circle><circle r="4.2367753902711085" cx="545.4769477623366" cy="284.32496957113347" opacity="0.8371062831474947"></circle><circle r="6.228368409530098" cx="433.4111647166679" cy="525.6361525025221" opacity="0.5570007789301903"></circle><circle r="4.4531703878681945" cx="226.78999337485018" cy="671.3995647878648" opacity="0.6909597525127747"></circle><circle r="4.482152580574724" cx="488.63335956332463" cy="754.6276303035883" opacity="0.32271159320936166"></circle><circle r="6.849562464982416" cx="753.2834916651087" cy="658.5103260784326" opacity="0.5146815690460659"></circle><circle r="7.247655104315541" cx="419.4901356877674" cy="598.475205392572" opacity="0.21304646396877291"></circle><circle r="3.216807144302462" cx="329.96061942408846" cy="151.60670463881516" opacity="0.4431965722204798"></circle><circle r="7.385372747373889" cx="320.2020209078329" cy="268.65797289217005" opacity="0.8002216966417351"></circle><circle r="3.8534371890153896" cx="416.7831118871564" cy="788.6171634178785" opacity="0.3748968989777186"></circle><circle r="5.302141126234336" cx="379.0310937809556" cy="56.28431540660952" opacity="0.18950209462873874"></circle><circle r="5.510627942429366" cx="565.5164987247955" cy="702.2040144830852" opacity="0.6944999835047718"></circle><circle r="7.357091611390654" cx="783.3005953474195" cy="165.96188918600586" opacity="0.6892428722404503"></circle><circle r="4.3460350633887925" cx="632.7800369501477" cy="297.6728362696958" opacity="0.41832769092923017"></circle><circle r="6.404822535642349" cx="56.67204296013268" cy="652.8966107438657" opacity="0.4160790613712769"></circle><circle r="7.215487710429641" cx="701.6668873252074" cy="551.3147454537291" opacity="0.9503287311980261"></circle><circle r="4.29914603512636" cx="131.2738373849998" cy="376.1460307655243" opacity="0.3440042046852076"></circle><circle r="3.6861672388525597" cx="710.1837613671162" cy="623.5947624716946" opacity="0.6470593654058757"></circle></g></svg>