<svg id="visual" viewBox="0 0 1920 400" width="1920" height="400" xmlns="http://www.w3.org/2000/svg" xmlns:xlink="http://www.w3.org/1999/xlink" version="1.1"><rect x="0" y="0" width="1920" height="400" fill="#f0c27c"></rect><path d="M0 276L40 275.3C80 274.7 160 273.3 240 247C320 220.7 400 169.3 480 156.7C560 144 640 170 720 165C800 160 880 124 960 119.5C1040 115 1120 142 1200 174.7C1280 207.3 1360 245.7 1440 270.3C1520 295 1600 306 1680 277.3C1760 248.7 1840 180.3 1880 146.2L1920 112L1920 401L1880 401C1840 401 1760 401 1680 401C1600 401 1520 401 1440 401C1360 401 1280 401 1200 401C1120 401 1040 401 960 401C880 401 800 401 720 401C640 401 560 401 480 401C400 401 320 401 240 401C160 401 80 401 40 401L0 401Z" fill="#e8a237" stroke-linecap="round" stroke-linejoin="miter"></path></svg>